<svg xmlns="http://www.w3.org/2000/svg" width="1536" height="1536" baseProfile="full" viewBox="0 0 1536 1536"><g fill="#62191c"><path d="m1085 758-6-2-16-1-1-1h-12l-1-1h-53l-1 1h-10l-1 1-17 1-1 1-17 2-40 9-41 13-3 2-18 6-12 6-5 1-80 39-2 2-75 38h-2l-31 15-33 13-48 15h-4l-13 4-25 5h-6l-1 1-20 2-1 1h-8l-1 1h-10l-1 1-41 1-1 1h-9l-1 1 4 2 10 1 6 2 30 3 1 1h15l1 1 53-1 1-1 30-3 11-3h5l9-3h4l26-7 30-11 2 2-2 71-1 1v11l-1 1-1 15-6 21-7 9-8 4-18 2-1 1h-16l-3 1-3 3v6l2 2 5 2h54l1-1h31l1-1h45l1 1h36l1 1h69l4-1 4-4v-5l-3-3-34-2-1-1h-9l-1-1-10-1-6-2-6-4-4-4-5-9-5-24-1-27-1-1v-20l-1-1v-88l101-52h2l39-18 32-11 3-2 33-10 33-8h5l5-2 30-4 1-1 45-4Z"/><path d="m1264 687-2-4-9-1-6-2h-7l-1 1 3 26 1 1v8l1 1 1 23 1 1v53l-1 1-1 23-1 1v8l-1 1-2 20-12 52-12 36-12 29-27 51-20 30-34 42-35 35-26 22-43 30-24 14-28 14-26 11-45 15-44 10-25 3-1 1-34 2-1 1-62-1-1-1h-11l-1-1h-7l-1-1-26-3-5-2-10-1-28-7-37-12-36-15-50-27-44-31-25-21-34-34-22-26-31-44-15-26-12-24-12-28-7-22-2-3-12-45-12-2-9-3h-3l-1 4 12 47 18 49 20 41 22 37 27 37 25 29 26 26 18 16 35 27 48 30 41 20 51 19 46 12h5l30 6 28 2 1 1h13l1 1h51l1-1 34-2 1-1h7l1-1 18-2 45-10 46-15 31-13 28-14 34-20 38-27 35-30 32-33 32-40 26-40 22-42 21-53v-3l4-10 5-21 2-4 10-53 2-28 1-1v-16l1-1v-43l-1-1v-16l-1-1v-10l-1-1Z"/><path d="m1454 726-46-28-47-24-30-13-29-10-3-2-43-13h-4l-27-7h-5l-11-3h-6l-14-3h-7l-1-1-36-2-1-1h-55l-1 1-26 1-1 1h-7l-1 1h-7l-1 1h-7l-1 1-24 3-46 10-4 2-32 8-64 22-64 26-46 21-2-2V519l4-4h39l1 1 89 1 1 1h8l9 2 16 7 12 11 5 13 1 23 2 7 2 2h7l3-2 2-5 1-20 1-1v-15l1-1 1-34 6-27v-9l-3-3h-6l-7 4-8 2-25 1-1 1H677l-1-1h-41l-1-1h-50l-6 2-3 4v3l3 4 3 1 30 1 18 4 8 4 7 6 5 8 3 10 1 16 1 1v53l1 1v171l-2 2-12 4-15 7-5 1-5 3-44 15-3 2h-3l-36 12h-4l-7 3h-4l-8 3h-4l-14 4-26 4-1 1-12 1-1 1-36 3-1 1-57 1-1-1h-18l-1-1h-11l-1-1-25-2-35-7h-5l-26-7h-4l-7-3-21-5-6-3h-3l-35-12-28-12-5-1-42-19-2 2 35 23 42 24h2l18 10h2l27 13 46 17h3l10 4 18 4 8 3 53 10 30 2 1 1h13l1 1h44l1-1h16l1-1 29-2 1-1 31-4 25-6h4l9-3h4l4-2 35-9 39-13 55-21 5-3 12-4 7-4 30-12 43-20 9-3 18-9 16-6 9-5 89-36 68-22 32-8 9-1 10-3h5l5-2 12-1 6-2 32-3 1-1h11l1-1h17l1-1h47l1 1 38 2 1 1 35 4 31 6 9 3h4l48 13 53 18 45 18 5 3h2Z"/><path d="m1247 616-16-44-20-42-20-34-27-38-30-35-34-33-39-31-30-20-26-15-26-13-28-12-51-17h-4l-16-5-25-5-18-2-1-1h-7l-1-1-34-2-1-1h-52l-1 1-33 2-1 1h-7l-7 2-12 1-25 5-5 2h-4l-7 3h-4l-38 12-39 16-46 24-34 22-35 27-18 16-26 26-25 29-27 37-22 37-20 41-18 49-12 46v5l-5 23-1 14-1 1-2 34-1 1v51l1 1v9l4 2 10 2h6l1 1 3-1-1-63 1-1v-13l1-1v-12l1-1 1-15 10-51 9-28v-3l2-3 7-22 11-26 13-26 15-26 21-31 18-23 14-16 34-34 30-25 39-27 28-16 45-21 43-15 40-10h5l25-5h6l1-1 18-1 1-1h15l1-1h46l1 1h14l1 1h11l1 1 22 2 41 8 29 9h3l3 2h3l39 15 37 18 32 19 31 22 20 16 33 31 20 22 17 21 29 42 27 51v2l7 14 1 5 3 5 6 18 22 5h3Z"/></g></svg>